<svg xmlns="http://www.w3.org/2000/svg" width="512" height="512">
  <rect width="512" height="512" fill="#a1714c"/>
  <g fill="none" stroke-linecap="round">
    <path d="M42 0c38 92-35 162 8 255s-30 166 3 257M146 0c-29 104 31 158-8 264s35 151-2 248M275 0c44 111-32 171 11 267s-22 147 6 245M405 0c-37 91 27 177-10 261s29 170-7 251" stroke="#5e3d28" stroke-width="18" opacity=".52"/>
    <path d="M86 0c21 98-18 165 7 256s-16 168 5 256M338 0c-20 109 16 156-6 265s17 151-5 247" stroke="#d09b70" stroke-width="8" opacity=".5"/>
  </g>
</svg>
